<?xml version="1.0" encoding="UTF-8" standalone="no"?>
<svg
   width="799"
   height="223"
   viewBox="0 0 799 223"
   version="1.1"
   id="svg26"
   sodipodi:docname="open-electrical.svg"
   inkscape:version="1.4.4 (dcaf3e7d9e, 2026-05-05)"
   xmlns:inkscape="http://www.inkscape.org/namespaces/inkscape"
   xmlns:sodipodi="http://sodipodi.sourceforge.net/DTD/sodipodi-0.dtd"
   xmlns="http://www.w3.org/2000/svg"
   xmlns:svg="http://www.w3.org/2000/svg">
  <defs
     id="defs26">
    <rect
       x="442.28906"
       y="414.93097"
       width="415.8429"
       height="114.90396"
       id="rect29" />
  </defs>
  <sodipodi:namedview
     id="namedview26"
     pagecolor="#ffffff"
     bordercolor="#000000"
     borderopacity="0.25"
     inkscape:showpageshadow="2"
     inkscape:pageopacity="0.0"
     inkscape:pagecheckerboard="0"
     inkscape:deskcolor="#d1d1d1"
     inkscape:zoom="0.7753906"
     inkscape:cx="152.18137"
     inkscape:cy="-14.186398"
     inkscape:window-width="1920"
     inkscape:window-height="1012"
     inkscape:window-x="0"
     inkscape:window-y="0"
     inkscape:window-maximized="1"
     inkscape:current-layer="layer1" />
  <g
     inkscape:groupmode="layer"
     id="layer1"
     inkscape:label="logo"
     transform="translate(-45.109981,-403.65993)">
    <g
       id="g29"
       inkscape:label="logo"
       inkscape:export-filename="logo.svg"
       inkscape:export-xdpi="96"
       inkscape:export-ydpi="96">
      <path
         id="path2"
         style="fill:#181868;fill-opacity:1"
         d="m 120.53711,403.55664 c -7.73455,0.0783 -15.17823,0.93619 -21.580079,6.58594 -6.6459,5.865 -7.813081,12.09672 -10.863281,20.13672 l -8.960938,23.1875 -16.236328,42.53515 c -2.9282,7.508 -6.086756,14.97038 -9.035156,22.48438 -3.0557,7.788 -2.159816,15.14778 7.708984,15.80078 6.2362,0.413 12.562079,0.20198 18.830079,0.20898 13.1239,-0.043 26.248089,0.0205 39.371089,0.1875 -2.246,12.334 -4.81231,24.6076 -7.69531,36.8086 l -48.988279,0.0137 c -3.2175,-3.371 -5.8904,-5.75917 -10.9375,-4.32617 -2.5225,0.722 -4.6296,2.46268 -5.8125,4.80469 -1.9625,3.85698 -1.223632,6.62143 0.04297,10.52343 6.2014,6.546 11.528588,5.06561 17.554688,-0.40039 15.6595,-0.122 31.319818,-0.0819 46.978511,0.1211 -2.698,11.186 -4.9789,24.12878 -7.2539,35.55078 v 0.002 c -0.26782,1.4776 -0.53575,2.71086 -0.76758,4.2168 l -0.73633,4.77148 c 0.77597,-1.63794 2.05827,-4.06359 2.6543,-5.68359 6.705,-12.174 14.64167,-27.14119 21.01367,-39.36719 l 55.73437,0.29687 c 5.362,8.51001 15.13082,13.35407 22.38282,3.91407 2.203,-2.865 3.17603,-6.48733 2.70703,-10.07031 -1.596,-12.301 -17.84757,-14.69707 -25.10156,-3.53907 -15.868,0.653 -34.81149,0.1753 -50.89649,0.1543 1.432,-3.383 3.41298,-7.03375 5.08399,-10.34375 10.39099,-20.581 19.48289,-41.56019 28.83789,-62.61719 -14.424,0.015 -37.11421,0.97755 -50.78321,-0.81445 -16.961494,-2.224 -3.30367,-28.40535 0.36133,-37.90234 2.854,-7.35 5.63856,-14.72786 8.35156,-22.13086 6.596,-18.09 6.6203,-24.69316 23.9043,-35.03516 l -18.06445,-0.041 c -2.615,0.002 -5.22651,-0.0593 -7.80469,-0.0332 z m 73.36914,169.74609 c 1.81055,-0.0679 3.57192,0.93204 4.38867,2.67579 1.089,2.325 0.0896,5.09259 -2.23437,6.18359 -2.327,1.093 -5.10041,0.0917 -6.19141,-2.23633 -1.09,-2.328 -0.0849,-5.0995 2.24414,-6.1875 0.5815,-0.272 1.18945,-0.4129 1.79297,-0.43555 z"
         inkscape:label="blue" />
      <path
         fill="#08d6da"
         d="m 161.795,404.168 c 8.21759,0.42163 17.34011,-2.15803 24.89647,1.84778 4.54379,6.58485 -2.22199,14.49397 -4.04576,21.13665 -4.72856,11.42141 -9.35746,22.88406 -14.04471,34.32257 12.26417,0.002 24.62186,-0.88595 36.81686,0.75094 8.14023,3.24147 1.01814,13.32913 -0.0879,19.1534 -8.09483,22.87285 -16.75591,45.5639 -25.62928,68.13246 -4.28566,9.20128 -13.5542,16.60852 -24.0691,16.0649 -5.23564,-0.0465 -10.47002,-0.19928 -15.70657,-0.0897 9.22675,-23.79996 22.66229,-45.78664 30.902,-69.991 -18.03196,0.0472 -36.15554,1.16852 -54.12127,-0.78077 -6.8378,-0.52654 -8.07292,-9.47655 -5.69173,-14.62323 4.49599,-11.73993 10.0888,-23.05556 13.70221,-35.13704 4.51846,-12.891 8.63982,-27.54924 20.81189,-35.38959 4.84397,-3.18523 10.57717,-4.66005 16.2669,-5.39737 z"
         id="path4"
         style="fill:#f9d809;fill-opacity:1"
         inkscape:label="yellow" />
    </g>
    <text
       xml:space="preserve"
       style="font-style:normal;font-variant:normal;font-weight:normal;font-stretch:normal;font-size:96px;font-family:'Open Sans';-inkscape-font-specification:'Open Sans';letter-spacing:-4.5px;word-spacing:0px;writing-mode:lr-tb;direction:ltr;fill:#181868;fill-opacity:1;stroke-width:377.953"
       x="231.15129"
       y="540.09735"
       id="text28"
       inkscape:label="name"
       inkscape:export-filename="text.svg"
       inkscape:export-xdpi="96"
       inkscape:export-ydpi="96"><tspan
         sodipodi:role="line"
         id="tspan28"
         x="231.15129"
         y="540.09735"
         style="font-style:normal;font-variant:normal;font-weight:300;font-stretch:normal;font-size:96px;font-family:'Open Sans';-inkscape-font-specification:'Open Sans Light';letter-spacing:-4.5px">Open <tspan
   style="font-style:normal;font-variant:normal;font-weight:600;font-stretch:normal;font-family:'Open Sans';-inkscape-font-specification:'Open Sans Semi-Bold'"
   id="tspan29">Electrical</tspan></tspan></text>
  </g>
</svg>
